<svg width="356" height="224" viewBox="0 0 356 224" fill="none" xmlns="http://www.w3.org/2000/svg">
<path fill-rule="evenodd" clip-rule="evenodd" d="M85 54.001C101.103 54.001 115.473 57.7646 128.111 65.293C140.953 72.6179 151.043 82.6901 158.381 95.5088C165.923 108.327 169.796 122.876 170 139.153V210.877C170 214.336 168.879 217.185 166.637 219.423C164.395 221.457 161.54 222.475 158.075 222.475C154.61 222.475 151.757 221.457 149.515 219.423C147.273 217.185 146.151 214.336 146.151 210.877V192.32C139.898 201.081 131.948 208.284 122.302 213.929C110.683 220.643 97.4337 224.001 82.5537 224.001C66.8584 224.001 52.7934 220.338 40.3594 213.013C27.9255 205.484 18.0392 195.311 10.7012 182.492C3.56702 169.674 3.24022e-05 155.227 0 139.153C0 122.876 3.66883 108.327 11.0068 95.5088C18.5488 82.6901 28.7413 72.6179 41.583 65.293C54.4247 57.7646 68.897 54.001 85 54.001Z" fill="white"/>
<path fill-rule="evenodd" clip-rule="evenodd" d="M271 53.7852C287.307 53.7852 301.779 57.452 314.417 64.7861C327.259 72.1204 337.349 82.2051 344.688 95.04C352.026 107.875 355.796 122.544 356 139.046C356 155.344 352.229 169.91 344.688 182.745C337.349 195.58 327.259 205.665 314.417 212.999C301.779 220.333 287.307 224.001 271 224.001C254.693 224.001 240.119 220.333 227.277 212.999C214.436 205.665 204.345 195.58 197.007 182.745C189.669 169.91 186 155.344 186 139.046C186 122.544 189.669 107.875 197.007 95.04C204.345 82.2051 214.436 72.1204 227.277 64.7861C240.119 57.452 254.693 53.7852 271 53.7852Z" fill="white"/>
<path d="M310.442 0C313.704 0 316.456 1.01935 318.698 3.05664C321.144 5.0939 322.367 7.74244 322.367 11.002C322.367 14.4652 321.144 17.2157 318.698 19.2529C316.456 21.0865 313.704 22.0029 310.442 22.0029H231.252C227.991 22.0029 225.136 21.0865 222.69 19.2529C220.448 17.2157 219.327 14.4653 219.327 11.002C219.327 7.74241 220.448 5.09391 222.69 3.05664C225.136 1.01935 227.991 0 231.252 0H310.442Z" fill="white"/>
</svg>
